<?xml version="1.0" encoding="UTF-8" standalone="no"?>
<!DOCTYPE svg PUBLIC "-//W3C//DTD SVG 1.1//EN"
 "http://www.w3.org/Graphics/SVG/1.1/DTD/svg11.dtd">
<!-- Generated by graphviz version 2.40.1 (20161225.0304)
 -->
<!-- Title: G Pages: 1 -->
<svg width="943pt" height="1244pt"
 viewBox="0.00 0.00 942.83 1244.00" xmlns="http://www.w3.org/2000/svg" xmlns:xlink="http://www.w3.org/1999/xlink">
<g id="graph0" class="graph" transform="scale(1 1) rotate(0) translate(4 1240)">
<title>G</title>
<polygon fill="#ffffff" stroke="transparent" points="-4,4 -4,-1240 938.8312,-1240 938.8312,4 -4,4"/>
<g id="clust1" class="cluster">
<title>cluster_Global</title>
<path fill="none" stroke="#c0c0c0" d="M20,-98C20,-98 914.8312,-98 914.8312,-98 920.8312,-98 926.8312,-104 926.8312,-110 926.8312,-110 926.8312,-1216 926.8312,-1216 926.8312,-1222 920.8312,-1228 914.8312,-1228 914.8312,-1228 20,-1228 20,-1228 14,-1228 8,-1222 8,-1216 8,-1216 8,-110 8,-110 8,-104 14,-98 20,-98"/>
<text text-anchor="middle" x="467.4156" y="-1215.2" font-family="Times,serif" font-size="11.00" fill="#c0c0c0">Global</text>
</g>
<g id="clust2" class="cluster">
<title>cluster_\EC</title>
<path fill="none" stroke="#c0c0c0" d="M28,-106C28,-106 906.8312,-106 906.8312,-106 912.8312,-106 918.8312,-112 918.8312,-118 918.8312,-118 918.8312,-1189 918.8312,-1189 918.8312,-1195 912.8312,-1201 906.8312,-1201 906.8312,-1201 28,-1201 28,-1201 22,-1201 16,-1195 16,-1189 16,-1189 16,-118 16,-118 16,-112 22,-106 28,-106"/>
<text text-anchor="middle" x="467.4156" y="-1188.2" font-family="Times,serif" font-size="11.00" fill="#c0c0c0">EC</text>
</g>
<g id="clust3" class="cluster">
<title>cluster_\EC\EuropaWS</title>
<path fill="none" stroke="#c0c0c0" d="M36,-114C36,-114 898.8312,-114 898.8312,-114 904.8312,-114 910.8312,-120 910.8312,-126 910.8312,-126 910.8312,-1162 910.8312,-1162 910.8312,-1168 904.8312,-1174 898.8312,-1174 898.8312,-1174 36,-1174 36,-1174 30,-1174 24,-1168 24,-1162 24,-1162 24,-126 24,-126 24,-120 30,-114 36,-114"/>
<text text-anchor="middle" x="467.4156" y="-1161.2" font-family="Times,serif" font-size="11.00" fill="#c0c0c0">EuropaWS</text>
</g>
<g id="clust4" class="cluster">
<title>cluster_\EC\EuropaWS\Clients</title>
<path fill="none" stroke="#c0c0c0" d="M383.5032,-1076C383.5032,-1076 841.3231,-1076 841.3231,-1076 847.3231,-1076 853.3231,-1082 853.3231,-1088 853.3231,-1088 853.3231,-1135 853.3231,-1135 853.3231,-1141 847.3231,-1147 841.3231,-1147 841.3231,-1147 383.5032,-1147 383.5032,-1147 377.5032,-1147 371.5032,-1141 371.5032,-1135 371.5032,-1135 371.5032,-1088 371.5032,-1088 371.5032,-1082 377.5032,-1076 383.5032,-1076"/>
<text text-anchor="middle" x="612.4132" y="-1134.2" font-family="Times,serif" font-size="11.00" fill="#c0c0c0">Clients</text>
</g>
<g id="clust5" class="cluster">
<title>cluster_\EC\EuropaWS\Common</title>
<path fill="none" stroke="#c0c0c0" d="M711.2033,-729C711.2033,-729 877.6291,-729 877.6291,-729 883.6291,-729 889.6291,-735 889.6291,-741 889.6291,-741 889.6291,-842 889.6291,-842 889.6291,-848 883.6291,-854 877.6291,-854 877.6291,-854 711.2033,-854 711.2033,-854 705.2033,-854 699.2033,-848 699.2033,-842 699.2033,-842 699.2033,-741 699.2033,-741 699.2033,-735 705.2033,-729 711.2033,-729"/>
<text text-anchor="middle" x="794.4162" y="-841.2" font-family="Times,serif" font-size="11.00" fill="#c0c0c0">Common</text>
</g>
<g id="clust6" class="cluster">
<title>cluster_\EC\EuropaWS\Exceptions</title>
<path fill="none" stroke="#c0c0c0" d="M698.0011,-434C698.0011,-434 890.8312,-434 890.8312,-434 896.8312,-434 902.8312,-440 902.8312,-446 902.8312,-446 902.8312,-709 902.8312,-709 902.8312,-715 896.8312,-721 890.8312,-721 890.8312,-721 698.0011,-721 698.0011,-721 692.0011,-721 686.0011,-715 686.0011,-709 686.0011,-709 686.0011,-446 686.0011,-446 686.0011,-440 692.0011,-434 698.0011,-434"/>
<text text-anchor="middle" x="794.4162" y="-708.2" font-family="Times,serif" font-size="11.00" fill="#c0c0c0">Exceptions</text>
</g>
<g id="clust7" class="cluster">
<title>cluster_\EC\EuropaWS\Messages</title>
<path fill="none" stroke="#c0c0c0" d="M49.2021,-862C49.2021,-862 890.8312,-862 890.8312,-862 896.8312,-862 902.8312,-868 902.8312,-874 902.8312,-874 902.8312,-1056 902.8312,-1056 902.8312,-1062 896.8312,-1068 890.8312,-1068 890.8312,-1068 49.2021,-1068 49.2021,-1068 43.2021,-1068 37.2021,-1062 37.2021,-1056 37.2021,-1056 37.2021,-874 37.2021,-874 37.2021,-868 43.2021,-862 49.2021,-862"/>
<text text-anchor="middle" x="470.0167" y="-1055.2" font-family="Times,serif" font-size="11.00" fill="#c0c0c0">Messages</text>
</g>
<g id="clust8" class="cluster">
<title>cluster_\EC\EuropaWS\Messages\Components</title>
<path fill="none" stroke="#c0c0c0" d="M731.0065,-970C731.0065,-970 857.8258,-970 857.8258,-970 863.8258,-970 869.8258,-976 869.8258,-982 869.8258,-982 869.8258,-1029 869.8258,-1029 869.8258,-1035 863.8258,-1041 857.8258,-1041 857.8258,-1041 731.0065,-1041 731.0065,-1041 725.0065,-1041 719.0065,-1035 719.0065,-1029 719.0065,-1029 719.0065,-982 719.0065,-982 719.0065,-976 725.0065,-970 731.0065,-970"/>
<text text-anchor="middle" x="794.4162" y="-1028.2" font-family="Times,serif" font-size="11.00" fill="#c0c0c0">Components</text>
</g>
<g id="clust9" class="cluster">
<title>cluster_\EC\EuropaWS\Proxies</title>
<path fill="none" stroke="#c0c0c0" d="M701.3017,-247C701.3017,-247 887.5307,-247 887.5307,-247 893.5307,-247 899.5307,-253 899.5307,-259 899.5307,-259 899.5307,-414 899.5307,-414 899.5307,-420 893.5307,-426 887.5307,-426 887.5307,-426 701.3017,-426 701.3017,-426 695.3017,-426 689.3017,-420 689.3017,-414 689.3017,-414 689.3017,-259 689.3017,-259 689.3017,-253 695.3017,-247 701.3017,-247"/>
<text text-anchor="middle" x="794.4162" y="-413.2" font-family="Times,serif" font-size="11.00" fill="#c0c0c0">Proxies</text>
</g>
<g id="clust10" class="cluster">
<title>cluster_\EC\EuropaWS\Transporters</title>
<path fill="none" stroke="#c0c0c0" d="M367.0006,-168C367.0006,-168 851.2248,-168 851.2248,-168 857.2248,-168 863.2248,-174 863.2248,-180 863.2248,-180 863.2248,-227 863.2248,-227 863.2248,-233 857.2248,-239 851.2248,-239 851.2248,-239 367.0006,-239 367.0006,-239 361.0006,-239 355.0006,-233 355.0006,-227 355.0006,-227 355.0006,-180 355.0006,-180 355.0006,-174 361.0006,-168 367.0006,-168"/>
<text text-anchor="middle" x="609.1127" y="-226.2" font-family="Times,serif" font-size="11.00" fill="#c0c0c0">Transporters</text>
</g>
<!-- \\EC\\EuropaWS\\Clients\\DefaultClient -->
<g id="node1" class="node">
<title>\\EC\\EuropaWS\\Clients\\DefaultClient</title>
<polygon fill="none" stroke="#000000" points="845.2303,-1120 743.602,-1120 743.602,-1084 845.2303,-1084 845.2303,-1120"/>
<text text-anchor="middle" x="794.4162" y="-1098.7" font-family="Courier,monospace" font-size="11.00" fill="#000000">DefaultClient</text>
</g>
<!-- \\EC\\EuropaWS\\Clients\\ClientInterface -->
<g id="node2" class="node">
<title>\\EC\\EuropaWS\\Clients\\ClientInterface</title>
<polygon fill="none" stroke="#000000" points="494.5274,-1120 379.4952,-1120 379.4952,-1084 494.5274,-1084 494.5274,-1120"/>
<text text-anchor="middle" x="437.0113" y="-1098.7" font-family="Courier,monospace" font-size="11.00" fill="#000000">ClientInterface</text>
</g>
<!-- \\EC\\EuropaWS\\Clients\\DefaultClient&#45;&gt;\\EC\\EuropaWS\\Clients\\ClientInterface -->
<g id="edge1" class="edge">
<title>\\EC\\EuropaWS\\Clients\\DefaultClient&#45;&gt;\\EC\\EuropaWS\\Clients\\ClientInterface</title>
<path fill="none" stroke="#000000" stroke-dasharray="1,5" d="M743.5883,-1102C681.0794,-1102 574.7343,-1102 505.1789,-1102"/>
<polygon fill="none" stroke="#000000" points="504.7689,-1098.5001 494.7689,-1102 504.7689,-1105.5001 504.7689,-1098.5001"/>
</g>
<!-- \\EC\\EuropaWS\\Common\\DefaultValidatorBuilder -->
<g id="node3" class="node">
<title>\\EC\\EuropaWS\\Common\\DefaultValidatorBuilder</title>
<polygon fill="none" stroke="#000000" points="878.241,-827 710.5914,-827 710.5914,-791 878.241,-791 878.241,-827"/>
<text text-anchor="middle" x="794.4162" y="-805.7" font-family="Courier,monospace" font-size="11.00" fill="#000000">DefaultValidatorBuilder</text>
</g>
<!-- \\Symfony\\Component\\Validator\\ValidatorBuilder -->
<g id="node24" class="node">
<title>\\Symfony\\Component\\Validator\\ValidatorBuilder</title>
<ellipse fill="none" stroke="#000000" cx="437.0113" cy="-72" rx="184.9796" ry="18"/>
<text text-anchor="middle" x="437.0113" y="-67.8" font-family="Times,serif" font-size="14.00" fill="#c0c0c0">\Symfony\Component\Validator\ValidatorBuilder</text>
</g>
<!-- \\EC\\EuropaWS\\Common\\DefaultValidatorBuilder&#45;&gt;\\Symfony\\Component\\Validator\\ValidatorBuilder -->
<g id="edge2" class="edge">
<title>\\EC\\EuropaWS\\Common\\DefaultValidatorBuilder&#45;&gt;\\Symfony\\Component\\Validator\\ValidatorBuilder</title>
<path fill="none" stroke="#000000" d="M710.4657,-799.5183C701.1747,-795.361 692.6772,-789.6897 686.0011,-782 595.4861,-677.7419 700.6698,-277.4635 622.0011,-164 597.3198,-128.4022 554.7573,-105.9166 516.6768,-92.0941"/>
<polygon fill="none" stroke="#000000" points="517.7003,-88.7444 507.1055,-88.7638 515.3999,-95.3557 517.7003,-88.7444"/>
</g>
<!-- \\EC\\EuropaWS\\Common\\WSConfigurationInterface -->
<g id="node4" class="node">
<title>\\EC\\EuropaWS\\Common\\WSConfigurationInterface</title>
<polygon fill="none" stroke="#000000" points="881.8425,-773 706.9899,-773 706.9899,-737 881.8425,-737 881.8425,-773"/>
<text text-anchor="middle" x="794.4162" y="-751.7" font-family="Courier,monospace" font-size="11.00" fill="#000000">WSConfigurationInterface</text>
</g>
<!-- \\EC\\EuropaWS\\Exceptions\\ClientInstantiationException -->
<g id="node5" class="node">
<title>\\EC\\EuropaWS\\Exceptions\\ClientInstantiationException</title>
<polygon fill="none" stroke="#000000" points="894.7463,-586 694.086,-586 694.086,-550 894.7463,-550 894.7463,-586"/>
<text text-anchor="middle" x="794.4162" y="-564.7" font-family="Courier,monospace" font-size="11.00" fill="#000000">ClientInstantiationException</text>
</g>
<!-- \\Exception -->
<g id="node25" class="node">
<title>\\Exception</title>
<ellipse fill="none" stroke="#000000" cx="437.0113" cy="-18" rx="48.3341" ry="18"/>
<text text-anchor="middle" x="437.0113" y="-13.8" font-family="Times,serif" font-size="14.00" fill="#c0c0c0">\Exception</text>
</g>
<!-- \\EC\\EuropaWS\\Exceptions\\ClientInstantiationException&#45;&gt;\\Exception -->
<g id="edge3" class="edge">
<title>\\EC\\EuropaWS\\Exceptions\\ClientInstantiationException&#45;&gt;\\Exception</title>
<path fill="none" stroke="#000000" d="M695.8423,-549.8947C692.2768,-547.2829 688.968,-544.3318 686.0011,-541 538.1857,-375.0016 777.8607,-203.4697 622.0011,-45 588.7811,-11.2237 533.3034,-7.1865 491.7494,-9.9561"/>
<polygon fill="none" stroke="#000000" points="491.4584,-6.4681 481.775,-10.7672 492.0258,-13.4451 491.4584,-6.4681"/>
</g>
<!-- \\EC\\EuropaWS\\Exceptions\\ConnectionException -->
<g id="node6" class="node">
<title>\\EC\\EuropaWS\\Exceptions\\ConnectionException</title>
<polygon fill="none" stroke="#000000" points="865.3372,-532 723.4951,-532 723.4951,-496 865.3372,-496 865.3372,-532"/>
<text text-anchor="middle" x="794.4162" y="-510.7" font-family="Courier,monospace" font-size="11.00" fill="#000000">ConnectionException</text>
</g>
<!-- \\EC\\EuropaWS\\Exceptions\\ConnectionException&#45;&gt;\\Exception -->
<g id="edge4" class="edge">
<title>\\EC\\EuropaWS\\Exceptions\\ConnectionException&#45;&gt;\\Exception</title>
<path fill="none" stroke="#000000" d="M723.6592,-508.9418C709.4618,-504.7546 695.8895,-497.9333 686.0011,-487 552.8563,-339.786 762.2774,-185.4353 622.0011,-45 588.5916,-11.5526 533.314,-7.4257 491.8684,-10.0821"/>
<polygon fill="none" stroke="#000000" points="491.3441,-6.6126 481.6511,-10.8899 491.8959,-13.5908 491.3441,-6.6126"/>
</g>
<!-- \\EC\\EuropaWS\\Exceptions\\ProxyException -->
<g id="node7" class="node">
<title>\\EC\\EuropaWS\\Exceptions\\ProxyException</title>
<polygon fill="none" stroke="#000000" points="848.832,-478 740.0003,-478 740.0003,-442 848.832,-442 848.832,-478"/>
<text text-anchor="middle" x="794.4162" y="-456.7" font-family="Courier,monospace" font-size="11.00" fill="#000000">ProxyException</text>
</g>
<!-- \\EC\\EuropaWS\\Exceptions\\ProxyException&#45;&gt;\\Exception -->
<g id="edge5" class="edge">
<title>\\EC\\EuropaWS\\Exceptions\\ProxyException&#45;&gt;\\Exception</title>
<path fill="none" stroke="#000000" d="M740.0725,-456.9097C720.4216,-453.028 699.7183,-445.2423 686.0011,-430 569.9673,-301.065 745.8634,-166.4341 622.0011,-45 588.3502,-12.0088 533.3631,-7.7554 492.0672,-10.254"/>
<polygon fill="none" stroke="#000000" points="491.5932,-6.7797 481.8845,-11.0214 492.1193,-13.7599 491.5932,-6.7797"/>
</g>
<!-- \\EC\\EuropaWS\\Exceptions\\ValidationException -->
<g id="node8" class="node">
<title>\\EC\\EuropaWS\\Exceptions\\ValidationException</title>
<polygon fill="none" stroke="#000000" points="865.3372,-694 723.4951,-694 723.4951,-658 865.3372,-658 865.3372,-694"/>
<text text-anchor="middle" x="794.4162" y="-672.7" font-family="Courier,monospace" font-size="11.00" fill="#000000">ValidationException</text>
</g>
<!-- \\EC\\EuropaWS\\Exceptions\\ValidationException&#45;&gt;\\Exception -->
<g id="edge6" class="edge">
<title>\\EC\\EuropaWS\\Exceptions\\ValidationException&#45;&gt;\\Exception</title>
<path fill="none" stroke="#000000" d="M723.6266,-671.3017C709.343,-667.1081 695.7424,-660.1935 686.0011,-649 597.3937,-547.1835 715.545,-142.3006 622.0011,-45 589.0637,-10.7398 533.284,-6.8385 491.5684,-9.7754"/>
<polygon fill="none" stroke="#000000" points="491.2241,-6.292 481.5573,-10.6281 491.8183,-13.2667 491.2241,-6.292"/>
</g>
<!-- \\EC\\EuropaWS\\Exceptions\\WebServiceErrorException -->
<g id="node9" class="node">
<title>\\EC\\EuropaWS\\Exceptions\\WebServiceErrorException</title>
<polygon fill="none" stroke="#000000" points="881.8425,-640 706.9899,-640 706.9899,-604 881.8425,-604 881.8425,-640"/>
<text text-anchor="middle" x="794.4162" y="-618.7" font-family="Courier,monospace" font-size="11.00" fill="#000000">WebServiceErrorException</text>
</g>
<!-- \\EC\\EuropaWS\\Exceptions\\WebServiceErrorException&#45;&gt;\\Exception -->
<g id="edge7" class="edge">
<title>\\EC\\EuropaWS\\Exceptions\\WebServiceErrorException&#45;&gt;\\Exception</title>
<path fill="none" stroke="#000000" d="M707.139,-610.8286C699.1682,-606.8648 691.8931,-601.7005 686.0011,-595 523.4938,-410.1932 793.4666,-221.527 622.0011,-45 588.8881,-10.9095 533.1336,-6.9838 491.4719,-9.8687"/>
<polygon fill="none" stroke="#000000" points="491.1466,-6.3836 481.4746,-10.7081 491.7324,-13.359 491.1466,-6.3836"/>
</g>
<!-- \\EC\\EuropaWS\\Messages\\Components\\ComponentInterface -->
<g id="node10" class="node">
<title>\\EC\\EuropaWS\\Messages\\Components\\ComponentInterface</title>
<polygon fill="none" stroke="#000000" points="861.7356,-1014 727.0967,-1014 727.0967,-978 861.7356,-978 861.7356,-1014"/>
<text text-anchor="middle" x="794.4162" y="-992.7" font-family="Courier,monospace" font-size="11.00" fill="#000000">ComponentInterface</text>
</g>
<!-- \\EC\\EuropaWS\\ConvertibleInterface -->
<g id="node22" class="node">
<title>\\EC\\EuropaWS\\ConvertibleInterface</title>
<polygon fill="none" stroke="#000000" points="180.0322,-1112 31.9893,-1112 31.9893,-1076 180.0322,-1076 180.0322,-1112"/>
<text text-anchor="middle" x="106.0107" y="-1090.7" font-family="Courier,monospace" font-size="11.00" fill="#000000">ConvertibleInterface</text>
</g>
<!-- \\EC\\EuropaWS\\Messages\\Components\\ComponentInterface&#45;&gt;\\EC\\EuropaWS\\ConvertibleInterface -->
<g id="edge11" class="edge">
<title>\\EC\\EuropaWS\\Messages\\Components\\ComponentInterface&#45;&gt;\\EC\\EuropaWS\\ConvertibleInterface</title>
<path fill="none" stroke="#000000" d="M740.2995,-1014.0102C706.6393,-1024.473 662.2465,-1036.9453 622.0011,-1044 459.5721,-1072.4725 415.8839,-1053.4803 252.0215,-1072 231.9734,-1074.2658 210.4519,-1077.2178 190.2579,-1080.2199"/>
<polygon fill="none" stroke="#000000" points="189.5167,-1076.792 180.1497,-1081.7427 190.5596,-1083.7139 189.5167,-1076.792"/>
</g>
<!-- \\EC\\EuropaWS\\ValidatableInterface -->
<g id="node23" class="node">
<title>\\EC\\EuropaWS\\ValidatableInterface</title>
<polygon fill="none" stroke="#000000" points="180.0322,-854 31.9893,-854 31.9893,-818 180.0322,-818 180.0322,-854"/>
<text text-anchor="middle" x="106.0107" y="-832.7" font-family="Courier,monospace" font-size="11.00" fill="#000000">ValidatableInterface</text>
</g>
<!-- \\EC\\EuropaWS\\Messages\\Components\\ComponentInterface&#45;&gt;\\EC\\EuropaWS\\ValidatableInterface -->
<g id="edge10" class="edge">
<title>\\EC\\EuropaWS\\Messages\\Components\\ComponentInterface&#45;&gt;\\EC\\EuropaWS\\ValidatableInterface</title>
<path fill="none" stroke="#000000" d="M726.8781,-990.8636C712.5138,-987.5044 698.0599,-982.2243 686.0011,-974 642.7162,-944.4788 667.0423,-901.7653 622.0011,-875 488.0791,-795.4179 298.8354,-805.7543 190.6635,-820.7078"/>
<polygon fill="none" stroke="#000000" points="189.8574,-817.2873 180.4529,-822.1664 190.8474,-824.217 189.8574,-817.2873"/>
</g>
<!-- \\EC\\EuropaWS\\Messages\\StringResponseMessage -->
<g id="node11" class="node">
<title>\\EC\\EuropaWS\\Messages\\StringResponseMessage</title>
<polygon fill="none" stroke="#000000" points="514.1343,-1014 359.8883,-1014 359.8883,-978 514.1343,-978 514.1343,-1014"/>
<text text-anchor="middle" x="437.0113" y="-992.7" font-family="Courier,monospace" font-size="11.00" fill="#000000">StringResponseMessage</text>
</g>
<!-- \\EC\\EuropaWS\\Messages\\MessageInterface -->
<g id="node13" class="node">
<title>\\EC\\EuropaWS\\Messages\\MessageInterface</title>
<polygon fill="none" stroke="#000000" points="166.6285,-987 45.393,-987 45.393,-951 166.6285,-951 166.6285,-987"/>
<text text-anchor="middle" x="106.0107" y="-965.7" font-family="Courier,monospace" font-size="11.00" fill="#000000">MessageInterface</text>
</g>
<!-- \\EC\\EuropaWS\\Messages\\StringResponseMessage&#45;&gt;\\EC\\EuropaWS\\Messages\\MessageInterface -->
<g id="edge8" class="edge">
<title>\\EC\\EuropaWS\\Messages\\StringResponseMessage&#45;&gt;\\EC\\EuropaWS\\Messages\\MessageInterface</title>
<path fill="none" stroke="#000000" stroke-dasharray="1,5" d="M359.8241,-989.7038C304.5489,-985.1949 230.6865,-979.1699 176.8995,-974.7825"/>
<polygon fill="none" stroke="#000000" points="177.012,-971.2801 166.7605,-973.9554 176.4428,-978.2569 177.012,-971.2801"/>
</g>
<!-- \\EC\\EuropaWS\\Messages\\IdentifiableMessageInterface -->
<g id="node12" class="node">
<title>\\EC\\EuropaWS\\Messages\\IdentifiableMessageInterface</title>
<polygon fill="none" stroke="#000000" points="894.7463,-960 694.086,-960 694.086,-924 894.7463,-924 894.7463,-960"/>
<text text-anchor="middle" x="794.4162" y="-938.7" font-family="Courier,monospace" font-size="11.00" fill="#000000">IdentifiableMessageInterface</text>
</g>
<!-- \\EC\\EuropaWS\\Messages\\ValidatableMessageInterface -->
<g id="node15" class="node">
<title>\\EC\\EuropaWS\\Messages\\ValidatableMessageInterface</title>
<polygon fill="none" stroke="#000000" points="534.2404,-960 339.7822,-960 339.7822,-924 534.2404,-924 534.2404,-960"/>
<text text-anchor="middle" x="437.0113" y="-938.7" font-family="Courier,monospace" font-size="11.00" fill="#000000">ValidatableMessageInterface</text>
</g>
<!-- \\EC\\EuropaWS\\Messages\\IdentifiableMessageInterface&#45;&gt;\\EC\\EuropaWS\\Messages\\ValidatableMessageInterface -->
<g id="edge12" class="edge">
<title>\\EC\\EuropaWS\\Messages\\IdentifiableMessageInterface&#45;&gt;\\EC\\EuropaWS\\Messages\\ValidatableMessageInterface</title>
<path fill="none" stroke="#000000" d="M693.9079,-942C647.3583,-942 591.9911,-942 544.5982,-942"/>
<polygon fill="none" stroke="#000000" points="544.3012,-938.5001 534.3012,-942 544.3012,-945.5001 544.3012,-938.5001"/>
</g>
<!-- \\EC\\EuropaWS\\Messages\\RequestInterface -->
<g id="node14" class="node">
<title>\\EC\\EuropaWS\\Messages\\RequestInterface</title>
<polygon fill="none" stroke="#000000" points="855.034,-906 733.7984,-906 733.7984,-870 855.034,-870 855.034,-906"/>
<text text-anchor="middle" x="794.4162" y="-884.7" font-family="Courier,monospace" font-size="11.00" fill="#000000">RequestInterface</text>
</g>
<!-- \\EC\\EuropaWS\\Messages\\ValidatableMessageInterface&#45;&gt;\\EC\\EuropaWS\\Messages\\MessageInterface -->
<g id="edge13" class="edge">
<title>\\EC\\EuropaWS\\Messages\\ValidatableMessageInterface&#45;&gt;\\EC\\EuropaWS\\Messages\\MessageInterface</title>
<path fill="none" stroke="#000000" d="M339.4905,-949.9549C287.4357,-954.201 224.5212,-959.333 177.1228,-963.1993"/>
<polygon fill="none" stroke="#000000" points="176.6326,-959.7276 166.9503,-964.0291 177.2018,-966.7044 176.6326,-959.7276"/>
</g>
<!-- \\EC\\EuropaWS\\Messages\\ValidatableMessageInterface&#45;&gt;\\EC\\EuropaWS\\ConvertibleInterface -->
<g id="edge15" class="edge">
<title>\\EC\\EuropaWS\\Messages\\ValidatableMessageInterface&#45;&gt;\\EC\\EuropaWS\\ConvertibleInterface</title>
<path fill="none" stroke="#000000" d="M339.7225,-941.5064C309.8245,-945.0841 277.9861,-952.9798 252.0215,-969 207.1801,-996.6672 223.1813,-1034.721 181.9686,-1069.7053"/>
<polygon fill="none" stroke="#000000" points="179.6521,-1067.0728 173.9009,-1075.9707 183.9457,-1072.6014 179.6521,-1067.0728"/>
</g>
<!-- \\EC\\EuropaWS\\Messages\\ValidatableMessageInterface&#45;&gt;\\EC\\EuropaWS\\ValidatableInterface -->
<g id="edge14" class="edge">
<title>\\EC\\EuropaWS\\Messages\\ValidatableMessageInterface&#45;&gt;\\EC\\EuropaWS\\ValidatableInterface</title>
<path fill="none" stroke="#000000" d="M339.5772,-941.1905C310.4635,-938.1322 279.1073,-931.922 252.0215,-920 216.0883,-904.1837 216.7701,-881.6844 181.1099,-859.254"/>
<polygon fill="none" stroke="#000000" points="182.7679,-856.1695 172.3637,-854.1689 179.2495,-862.221 182.7679,-856.1695"/>
</g>
<!-- \\EC\\EuropaWS\\Proxies\\ProxyProvider -->
<g id="node16" class="node">
<title>\\EC\\EuropaWS\\Proxies\\ProxyProvider</title>
<polygon fill="none" stroke="#000000" points="845.2303,-399 743.602,-399 743.602,-363 845.2303,-363 845.2303,-399"/>
<text text-anchor="middle" x="794.4162" y="-377.7" font-family="Courier,monospace" font-size="11.00" fill="#000000">ProxyProvider</text>
</g>
<!-- \\EC\\EuropaWS\\Proxies\\ComponentConverterInterface -->
<g id="node17" class="node">
<title>\\EC\\EuropaWS\\Proxies\\ComponentConverterInterface</title>
<polygon fill="none" stroke="#000000" points="891.6453,-345 697.187,-345 697.187,-309 891.6453,-309 891.6453,-345"/>
<text text-anchor="middle" x="794.4162" y="-323.7" font-family="Courier,monospace" font-size="11.00" fill="#000000">ComponentConverterInterface</text>
</g>
<!-- \\EC\\EuropaWS\\Proxies\\MessageConverterInterface -->
<g id="node18" class="node">
<title>\\EC\\EuropaWS\\Proxies\\MessageConverterInterface</title>
<polygon fill="none" stroke="#000000" points="884.943,-291 703.8893,-291 703.8893,-255 884.943,-255 884.943,-291"/>
<text text-anchor="middle" x="794.4162" y="-269.7" font-family="Courier,monospace" font-size="11.00" fill="#000000">MessageConverterInterface</text>
</g>
<!-- \\EC\\EuropaWS\\Transporters\\DummyTransporter -->
<g id="node19" class="node">
<title>\\EC\\EuropaWS\\Transporters\\DummyTransporter</title>
<polygon fill="none" stroke="#000000" points="855.034,-212 733.7984,-212 733.7984,-176 855.034,-176 855.034,-212"/>
<text text-anchor="middle" x="794.4162" y="-190.7" font-family="Courier,monospace" font-size="11.00" fill="#000000">DummyTransporter</text>
</g>
<!-- \\EC\\EuropaWS\\Transporters\\TransporterInterface -->
<g id="node20" class="node">
<title>\\EC\\EuropaWS\\Transporters\\TransporterInterface</title>
<polygon fill="none" stroke="#000000" points="511.0328,-212 362.9898,-212 362.9898,-176 511.0328,-176 511.0328,-212"/>
<text text-anchor="middle" x="437.0113" y="-190.7" font-family="Courier,monospace" font-size="11.00" fill="#000000">TransporterInterface</text>
</g>
<!-- \\EC\\EuropaWS\\Transporters\\DummyTransporter&#45;&gt;\\EC\\EuropaWS\\Transporters\\TransporterInterface -->
<g id="edge9" class="edge">
<title>\\EC\\EuropaWS\\Transporters\\DummyTransporter&#45;&gt;\\EC\\EuropaWS\\Transporters\\TransporterInterface</title>
<path fill="none" stroke="#000000" stroke-dasharray="1,5" d="M733.7873,-194C675.4669,-194 586.7777,-194 521.5357,-194"/>
<polygon fill="none" stroke="#000000" points="521.2744,-190.5001 511.2743,-194 521.2743,-197.5001 521.2744,-190.5001"/>
</g>
<!-- \\EC\\EuropaWS\\ClientContainerFactory -->
<g id="node21" class="node">
<title>\\EC\\EuropaWS\\ClientContainerFactory</title>
<polygon fill="none" stroke="#000000" points="875.14,-158 713.6924,-158 713.6924,-122 875.14,-122 875.14,-158"/>
<text text-anchor="middle" x="794.4162" y="-136.7" font-family="Courier,monospace" font-size="11.00" fill="#000000">ClientContainerFactory</text>
</g>
</g>
</svg>
