<?xml version="1.0" encoding="UTF-8" standalone="no"?>
<!DOCTYPE svg PUBLIC "-//W3C//DTD SVG 1.1//EN"
 "http://www.w3.org/Graphics/SVG/1.1/DTD/svg11.dtd">
<!-- Generated by graphviz version 2.40.1 (20161225.0304)
 -->
<!-- Title: G Pages: 1 -->
<svg width="943pt" height="1342pt"
 viewBox="0.00 0.00 942.83 1342.00" xmlns="http://www.w3.org/2000/svg" xmlns:xlink="http://www.w3.org/1999/xlink">
<g id="graph0" class="graph" transform="scale(1 1) rotate(0) translate(4 1338)">
<title>G</title>
<polygon fill="#ffffff" stroke="transparent" points="-4,4 -4,-1338 938.8312,-1338 938.8312,4 -4,4"/>
<g id="clust1" class="cluster">
<title>cluster_Global</title>
<path fill="none" stroke="#c0c0c0" d="M20,-98C20,-98 914.8312,-98 914.8312,-98 920.8312,-98 926.8312,-104 926.8312,-110 926.8312,-110 926.8312,-1314 926.8312,-1314 926.8312,-1320 920.8312,-1326 914.8312,-1326 914.8312,-1326 20,-1326 20,-1326 14,-1326 8,-1320 8,-1314 8,-1314 8,-110 8,-110 8,-104 14,-98 20,-98"/>
<text text-anchor="middle" x="467.4156" y="-1313.2" font-family="Times,serif" font-size="11.00" fill="#c0c0c0">Global</text>
</g>
<g id="clust2" class="cluster">
<title>cluster_\EC</title>
<path fill="none" stroke="#c0c0c0" d="M28,-106C28,-106 906.8312,-106 906.8312,-106 912.8312,-106 918.8312,-112 918.8312,-118 918.8312,-118 918.8312,-1287 918.8312,-1287 918.8312,-1293 912.8312,-1299 906.8312,-1299 906.8312,-1299 28,-1299 28,-1299 22,-1299 16,-1293 16,-1287 16,-1287 16,-118 16,-118 16,-112 22,-106 28,-106"/>
<text text-anchor="middle" x="467.4156" y="-1286.2" font-family="Times,serif" font-size="11.00" fill="#c0c0c0">EC</text>
</g>
<g id="clust3" class="cluster">
<title>cluster_\EC\EuropaWS</title>
<path fill="none" stroke="#c0c0c0" d="M36,-114C36,-114 898.8312,-114 898.8312,-114 904.8312,-114 910.8312,-120 910.8312,-126 910.8312,-126 910.8312,-1260 910.8312,-1260 910.8312,-1266 904.8312,-1272 898.8312,-1272 898.8312,-1272 36,-1272 36,-1272 30,-1272 24,-1266 24,-1260 24,-1260 24,-126 24,-126 24,-120 30,-114 36,-114"/>
<text text-anchor="middle" x="467.4156" y="-1259.2" font-family="Times,serif" font-size="11.00" fill="#c0c0c0">EuropaWS</text>
</g>
<g id="clust5" class="cluster">
<title>cluster_\EC\EuropaWS\Common</title>
<path fill="none" stroke="#c0c0c0" d="M711.2033,-463C711.2033,-463 877.6291,-463 877.6291,-463 883.6291,-463 889.6291,-469 889.6291,-475 889.6291,-475 889.6291,-576 889.6291,-576 889.6291,-582 883.6291,-588 877.6291,-588 877.6291,-588 711.2033,-588 711.2033,-588 705.2033,-588 699.2033,-582 699.2033,-576 699.2033,-576 699.2033,-475 699.2033,-475 699.2033,-469 705.2033,-463 711.2033,-463"/>
<text text-anchor="middle" x="794.4162" y="-575.2" font-family="Times,serif" font-size="11.00" fill="#c0c0c0">Common</text>
</g>
<g id="clust6" class="cluster">
<title>cluster_\EC\EuropaWS\Exceptions</title>
<path fill="none" stroke="#c0c0c0" d="M698.0011,-168C698.0011,-168 890.8312,-168 890.8312,-168 896.8312,-168 902.8312,-174 902.8312,-180 902.8312,-180 902.8312,-443 902.8312,-443 902.8312,-449 896.8312,-455 890.8312,-455 890.8312,-455 698.0011,-455 698.0011,-455 692.0011,-455 686.0011,-449 686.0011,-443 686.0011,-443 686.0011,-180 686.0011,-180 686.0011,-174 692.0011,-168 698.0011,-168"/>
<text text-anchor="middle" x="794.4162" y="-442.2" font-family="Times,serif" font-size="11.00" fill="#c0c0c0">Exceptions</text>
</g>
<g id="clust7" class="cluster">
<title>cluster_\EC\EuropaWS\Messages</title>
<path fill="none" stroke="#c0c0c0" d="M49.2021,-941C49.2021,-941 890.8312,-941 890.8312,-941 896.8312,-941 902.8312,-947 902.8312,-953 902.8312,-953 902.8312,-1135 902.8312,-1135 902.8312,-1141 896.8312,-1147 890.8312,-1147 890.8312,-1147 49.2021,-1147 49.2021,-1147 43.2021,-1147 37.2021,-1141 37.2021,-1135 37.2021,-1135 37.2021,-953 37.2021,-953 37.2021,-947 43.2021,-941 49.2021,-941"/>
<text text-anchor="middle" x="470.0167" y="-1134.2" font-family="Times,serif" font-size="11.00" fill="#c0c0c0">Messages</text>
</g>
<g id="clust8" class="cluster">
<title>cluster_\EC\EuropaWS\Messages\Components</title>
<path fill="none" stroke="#c0c0c0" d="M731.0065,-1049C731.0065,-1049 857.8258,-1049 857.8258,-1049 863.8258,-1049 869.8258,-1055 869.8258,-1061 869.8258,-1061 869.8258,-1108 869.8258,-1108 869.8258,-1114 863.8258,-1120 857.8258,-1120 857.8258,-1120 731.0065,-1120 731.0065,-1120 725.0065,-1120 719.0065,-1114 719.0065,-1108 719.0065,-1108 719.0065,-1061 719.0065,-1061 719.0065,-1055 725.0065,-1049 731.0065,-1049"/>
<text text-anchor="middle" x="794.4162" y="-1107.2" font-family="Times,serif" font-size="11.00" fill="#c0c0c0">Components</text>
</g>
<g id="clust9" class="cluster">
<title>cluster_\EC\EuropaWS\Proxies</title>
<path fill="none" stroke="#c0c0c0" d="M353.7984,-754C353.7984,-754 887.5307,-754 887.5307,-754 893.5307,-754 899.5307,-760 899.5307,-766 899.5307,-766 899.5307,-921 899.5307,-921 899.5307,-927 893.5307,-933 887.5307,-933 887.5307,-933 353.7984,-933 353.7984,-933 347.7984,-933 341.7984,-927 341.7984,-921 341.7984,-921 341.7984,-766 341.7984,-766 341.7984,-760 347.7984,-754 353.7984,-754"/>
<text text-anchor="middle" x="620.6645" y="-920.2" font-family="Times,serif" font-size="11.00" fill="#c0c0c0">Proxies</text>
</g>
<g id="clust10" class="cluster">
<title>cluster_\EC\EuropaWS\Transporters</title>
<path fill="none" stroke="#c0c0c0" d="M367.0006,-675C367.0006,-675 851.2248,-675 851.2248,-675 857.2248,-675 863.2248,-681 863.2248,-687 863.2248,-687 863.2248,-734 863.2248,-734 863.2248,-740 857.2248,-746 851.2248,-746 851.2248,-746 367.0006,-746 367.0006,-746 361.0006,-746 355.0006,-740 355.0006,-734 355.0006,-734 355.0006,-687 355.0006,-687 355.0006,-681 361.0006,-675 367.0006,-675"/>
<text text-anchor="middle" x="609.1127" y="-733.2" font-family="Times,serif" font-size="11.00" fill="#c0c0c0">Transporters</text>
</g>
<g id="clust4" class="cluster">
<title>cluster_\EC\EuropaWS\Clients</title>
<path fill="none" stroke="#c0c0c0" d="M383.5032,-596C383.5032,-596 841.3231,-596 841.3231,-596 847.3231,-596 853.3231,-602 853.3231,-608 853.3231,-608 853.3231,-655 853.3231,-655 853.3231,-661 847.3231,-667 841.3231,-667 841.3231,-667 383.5032,-667 383.5032,-667 377.5032,-667 371.5032,-661 371.5032,-655 371.5032,-655 371.5032,-608 371.5032,-608 371.5032,-602 377.5032,-596 383.5032,-596"/>
<text text-anchor="middle" x="612.4132" y="-654.2" font-family="Times,serif" font-size="11.00" fill="#c0c0c0">Clients</text>
</g>
<!-- \\EC\\EuropaWS\\Clients\\DefaultClient -->
<g id="node1" class="node">
<title>\\EC\\EuropaWS\\Clients\\DefaultClient</title>
<polygon fill="none" stroke="#000000" points="845.2303,-640 743.602,-640 743.602,-604 845.2303,-604 845.2303,-640"/>
<text text-anchor="middle" x="794.4162" y="-618.7" font-family="Courier,monospace" font-size="11.00" fill="#000000">DefaultClient</text>
</g>
<!-- \\EC\\EuropaWS\\Clients\\ClientInterface -->
<g id="node2" class="node">
<title>\\EC\\EuropaWS\\Clients\\ClientInterface</title>
<polygon fill="none" stroke="#000000" points="494.5274,-640 379.4952,-640 379.4952,-604 494.5274,-604 494.5274,-640"/>
<text text-anchor="middle" x="437.0113" y="-618.7" font-family="Courier,monospace" font-size="11.00" fill="#000000">ClientInterface</text>
</g>
<!-- \\EC\\EuropaWS\\Clients\\DefaultClient&#45;&gt;\\EC\\EuropaWS\\Clients\\ClientInterface -->
<g id="edge1" class="edge">
<title>\\EC\\EuropaWS\\Clients\\DefaultClient&#45;&gt;\\EC\\EuropaWS\\Clients\\ClientInterface</title>
<path fill="none" stroke="#000000" stroke-dasharray="1,5" d="M743.5883,-622C681.0794,-622 574.7343,-622 505.1789,-622"/>
<polygon fill="none" stroke="#000000" points="504.7689,-618.5001 494.7689,-622 504.7689,-625.5001 504.7689,-618.5001"/>
</g>
<!-- \\EC\\EuropaWS\\Common\\DefaultValidatorBuilder -->
<g id="node3" class="node">
<title>\\EC\\EuropaWS\\Common\\DefaultValidatorBuilder</title>
<polygon fill="none" stroke="#000000" points="878.241,-561 710.5914,-561 710.5914,-525 878.241,-525 878.241,-561"/>
<text text-anchor="middle" x="794.4162" y="-539.7" font-family="Courier,monospace" font-size="11.00" fill="#000000">DefaultValidatorBuilder</text>
</g>
<!-- \\Symfony\\Component\\Validator\\ValidatorBuilder -->
<g id="node25" class="node">
<title>\\Symfony\\Component\\Validator\\ValidatorBuilder</title>
<ellipse fill="none" stroke="#000000" cx="437.0113" cy="-72" rx="184.9796" ry="18"/>
<text text-anchor="middle" x="437.0113" y="-67.8" font-family="Times,serif" font-size="14.00" fill="#c0c0c0">\Symfony\Component\Validator\ValidatorBuilder</text>
</g>
<!-- \\EC\\EuropaWS\\Common\\DefaultValidatorBuilder&#45;&gt;\\Symfony\\Component\\Validator\\ValidatorBuilder -->
<g id="edge2" class="edge">
<title>\\EC\\EuropaWS\\Common\\DefaultValidatorBuilder&#45;&gt;\\Symfony\\Component\\Validator\\ValidatorBuilder</title>
<path fill="none" stroke="#000000" d="M710.3886,-529.5674C701.664,-526.0348 693.3253,-521.5898 686.0011,-516 539.0922,-403.8797 466.0525,-178.6785 444.2251,-99.9446"/>
<polygon fill="none" stroke="#000000" points="447.5906,-98.9825 441.5927,-90.2489 440.8352,-100.8166 447.5906,-98.9825"/>
</g>
<!-- \\EC\\EuropaWS\\Common\\WSConfigurationInterface -->
<g id="node4" class="node">
<title>\\EC\\EuropaWS\\Common\\WSConfigurationInterface</title>
<polygon fill="none" stroke="#000000" points="881.8425,-507 706.9899,-507 706.9899,-471 881.8425,-471 881.8425,-507"/>
<text text-anchor="middle" x="794.4162" y="-485.7" font-family="Courier,monospace" font-size="11.00" fill="#000000">WSConfigurationInterface</text>
</g>
<!-- \\EC\\EuropaWS\\Exceptions\\ClientInstantiationException -->
<g id="node5" class="node">
<title>\\EC\\EuropaWS\\Exceptions\\ClientInstantiationException</title>
<polygon fill="none" stroke="#000000" points="894.7463,-320 694.086,-320 694.086,-284 894.7463,-284 894.7463,-320"/>
<text text-anchor="middle" x="794.4162" y="-298.7" font-family="Courier,monospace" font-size="11.00" fill="#000000">ClientInstantiationException</text>
</g>
<!-- \\Exception -->
<g id="node26" class="node">
<title>\\Exception</title>
<ellipse fill="none" stroke="#000000" cx="437.0113" cy="-18" rx="48.3341" ry="18"/>
<text text-anchor="middle" x="437.0113" y="-13.8" font-family="Times,serif" font-size="14.00" fill="#c0c0c0">\Exception</text>
</g>
<!-- \\EC\\EuropaWS\\Exceptions\\ClientInstantiationException&#45;&gt;\\Exception -->
<g id="edge3" class="edge">
<title>\\EC\\EuropaWS\\Exceptions\\ClientInstantiationException&#45;&gt;\\Exception</title>
<path fill="none" stroke="#000000" d="M697.3903,-283.9828C693.3071,-281.3605 689.4766,-278.3818 686.0011,-275 609.9551,-201.0035 701.6205,-115.1372 622.0011,-45 587.0884,-14.2451 533.2696,-9.4675 492.6657,-11.2179"/>
<polygon fill="none" stroke="#000000" points="492.4304,-7.7255 482.6469,-11.7917 492.8307,-14.7141 492.4304,-7.7255"/>
</g>
<!-- \\EC\\EuropaWS\\Exceptions\\ConnectionException -->
<g id="node6" class="node">
<title>\\EC\\EuropaWS\\Exceptions\\ConnectionException</title>
<polygon fill="none" stroke="#000000" points="865.3372,-266 723.4951,-266 723.4951,-230 865.3372,-230 865.3372,-266"/>
<text text-anchor="middle" x="794.4162" y="-244.7" font-family="Courier,monospace" font-size="11.00" fill="#000000">ConnectionException</text>
</g>
<!-- \\EC\\EuropaWS\\Exceptions\\ConnectionException&#45;&gt;\\Exception -->
<g id="edge4" class="edge">
<title>\\EC\\EuropaWS\\Exceptions\\ConnectionException&#45;&gt;\\Exception</title>
<path fill="none" stroke="#000000" d="M723.5517,-240.8594C709.8609,-236.7416 696.5238,-230.4749 686.0011,-221 624.1474,-165.3052 686.5387,-97.5614 622.0011,-45 586.3487,-15.9636 533.5042,-10.7956 493.4138,-11.9711"/>
<polygon fill="none" stroke="#000000" points="493.0933,-8.4816 483.254,-12.4107 493.3959,-15.475 493.0933,-8.4816"/>
</g>
<!-- \\EC\\EuropaWS\\Exceptions\\ProxyException -->
<g id="node7" class="node">
<title>\\EC\\EuropaWS\\Exceptions\\ProxyException</title>
<polygon fill="none" stroke="#000000" points="848.832,-212 740.0003,-212 740.0003,-176 848.832,-176 848.832,-212"/>
<text text-anchor="middle" x="794.4162" y="-190.7" font-family="Courier,monospace" font-size="11.00" fill="#000000">ProxyException</text>
</g>
<!-- \\EC\\EuropaWS\\Exceptions\\ProxyException&#45;&gt;\\Exception -->
<g id="edge5" class="edge">
<title>\\EC\\EuropaWS\\Exceptions\\ProxyException&#45;&gt;\\Exception</title>
<path fill="none" stroke="#000000" d="M739.9891,-192.475C721.3469,-189.6206 701.3423,-183.7134 686.0011,-172 635.7641,-133.6425 673.279,-81.9546 622.0011,-45 585.2609,-18.5222 533.6153,-12.8866 494.227,-13.2392"/>
<polygon fill="none" stroke="#000000" points="493.9005,-9.7454 483.9806,-13.4665 494.0558,-16.7437 493.9005,-9.7454"/>
</g>
<!-- \\EC\\EuropaWS\\Exceptions\\ValidationException -->
<g id="node8" class="node">
<title>\\EC\\EuropaWS\\Exceptions\\ValidationException</title>
<polygon fill="none" stroke="#000000" points="865.3372,-428 723.4951,-428 723.4951,-392 865.3372,-392 865.3372,-428"/>
<text text-anchor="middle" x="794.4162" y="-406.7" font-family="Courier,monospace" font-size="11.00" fill="#000000">ValidationException</text>
</g>
<!-- \\EC\\EuropaWS\\Exceptions\\ValidationException&#45;&gt;\\Exception -->
<g id="edge6" class="edge">
<title>\\EC\\EuropaWS\\Exceptions\\ValidationException&#45;&gt;\\Exception</title>
<path fill="none" stroke="#000000" d="M723.4463,-404.4542C709.4326,-400.2718 695.9909,-393.5755 686.0011,-383 581.0121,-271.8555 732.3688,-150.8054 622.0011,-45 588.0907,-12.4914 533.3936,-8.1111 492.2533,-10.4446"/>
<polygon fill="none" stroke="#000000" points="491.832,-6.9657 482.1069,-11.1694 492.3309,-13.9479 491.832,-6.9657"/>
</g>
<!-- \\EC\\EuropaWS\\Exceptions\\WebServiceErrorException -->
<g id="node9" class="node">
<title>\\EC\\EuropaWS\\Exceptions\\WebServiceErrorException</title>
<polygon fill="none" stroke="#000000" points="881.8425,-374 706.9899,-374 706.9899,-338 881.8425,-338 881.8425,-374"/>
<text text-anchor="middle" x="794.4162" y="-352.7" font-family="Courier,monospace" font-size="11.00" fill="#000000">WebServiceErrorException</text>
</g>
<!-- \\EC\\EuropaWS\\Exceptions\\WebServiceErrorException&#45;&gt;\\Exception -->
<g id="edge7" class="edge">
<title>\\EC\\EuropaWS\\Exceptions\\WebServiceErrorException&#45;&gt;\\Exception</title>
<path fill="none" stroke="#000000" d="M707.047,-343.8013C699.2484,-340.0134 692.0358,-335.1716 686.0011,-329 595.542,-236.489 716.9333,-132.9148 622.0011,-45 587.6445,-13.183 533.2581,-8.6527 492.3301,-10.7586"/>
<polygon fill="none" stroke="#000000" points="491.983,-7.2738 482.235,-11.4244 492.4437,-14.2586 491.983,-7.2738"/>
</g>
<!-- \\EC\\EuropaWS\\Messages\\Components\\ComponentInterface -->
<g id="node10" class="node">
<title>\\EC\\EuropaWS\\Messages\\Components\\ComponentInterface</title>
<polygon fill="none" stroke="#000000" points="861.7356,-1093 727.0967,-1093 727.0967,-1057 861.7356,-1057 861.7356,-1093"/>
<text text-anchor="middle" x="794.4162" y="-1071.7" font-family="Courier,monospace" font-size="11.00" fill="#000000">ComponentInterface</text>
</g>
<!-- \\EC\\EuropaWS\\ConvertibleInterface -->
<g id="node23" class="node">
<title>\\EC\\EuropaWS\\ConvertibleInterface</title>
<polygon fill="none" stroke="#000000" points="180.0322,-1191 31.9893,-1191 31.9893,-1155 180.0322,-1155 180.0322,-1191"/>
<text text-anchor="middle" x="106.0107" y="-1169.7" font-family="Courier,monospace" font-size="11.00" fill="#000000">ConvertibleInterface</text>
</g>
<!-- \\EC\\EuropaWS\\Messages\\Components\\ComponentInterface&#45;&gt;\\EC\\EuropaWS\\ConvertibleInterface -->
<g id="edge12" class="edge">
<title>\\EC\\EuropaWS\\Messages\\Components\\ComponentInterface&#45;&gt;\\EC\\EuropaWS\\ConvertibleInterface</title>
<path fill="none" stroke="#000000" d="M758.09,-1093.0047C723.6501,-1109.5937 670.1608,-1134.1236 622.0011,-1151 541.7337,-1179.1277 520.8637,-1185.7595 437.0113,-1200"/>
<path fill="none" stroke="#000000" d="M437.0113,-1200C353.7484,-1214.1404 257.4,-1203.259 190.2012,-1191.3607"/>
<polygon fill="none" stroke="#000000" points="190.553,-1187.8674 180.0884,-1189.5235 189.3018,-1194.7546 190.553,-1187.8674"/>
</g>
<!-- \\EC\\EuropaWS\\ValidatableInterface -->
<g id="node24" class="node">
<title>\\EC\\EuropaWS\\ValidatableInterface</title>
<polygon fill="none" stroke="#000000" points="180.0322,-1245 31.9893,-1245 31.9893,-1209 180.0322,-1209 180.0322,-1245"/>
<text text-anchor="middle" x="106.0107" y="-1223.7" font-family="Courier,monospace" font-size="11.00" fill="#000000">ValidatableInterface</text>
</g>
<!-- \\EC\\EuropaWS\\Messages\\Components\\ComponentInterface&#45;&gt;\\EC\\EuropaWS\\ValidatableInterface -->
<g id="edge11" class="edge">
<title>\\EC\\EuropaWS\\Messages\\Components\\ComponentInterface&#45;&gt;\\EC\\EuropaWS\\ValidatableInterface</title>
<path fill="none" stroke="#000000" d="M437.0113,-1200C353.7484,-1214.1404 257.4,-1220.9386 190.2012,-1224.1674"/>
<polygon fill="none" stroke="#000000" points="189.9153,-1220.6768 180.0884,-1224.6369 190.24,-1227.6692 189.9153,-1220.6768"/>
</g>
<!-- \\EC\\EuropaWS\\Messages\\StringResponseMessage -->
<g id="node11" class="node">
<title>\\EC\\EuropaWS\\Messages\\StringResponseMessage</title>
<polygon fill="none" stroke="#000000" points="514.1343,-1066 359.8883,-1066 359.8883,-1030 514.1343,-1030 514.1343,-1066"/>
<text text-anchor="middle" x="437.0113" y="-1044.7" font-family="Courier,monospace" font-size="11.00" fill="#000000">StringResponseMessage</text>
</g>
<!-- \\EC\\EuropaWS\\Messages\\MessageInterface -->
<g id="node13" class="node">
<title>\\EC\\EuropaWS\\Messages\\MessageInterface</title>
<polygon fill="none" stroke="#000000" points="166.6285,-1093 45.393,-1093 45.393,-1057 166.6285,-1057 166.6285,-1093"/>
<text text-anchor="middle" x="106.0107" y="-1071.7" font-family="Courier,monospace" font-size="11.00" fill="#000000">MessageInterface</text>
</g>
<!-- \\EC\\EuropaWS\\Messages\\StringResponseMessage&#45;&gt;\\EC\\EuropaWS\\Messages\\MessageInterface -->
<g id="edge8" class="edge">
<title>\\EC\\EuropaWS\\Messages\\StringResponseMessage&#45;&gt;\\EC\\EuropaWS\\Messages\\MessageInterface</title>
<path fill="none" stroke="#000000" stroke-dasharray="1,5" d="M359.8241,-1054.2962C304.5489,-1058.8051 230.6865,-1064.8301 176.8995,-1069.2175"/>
<polygon fill="none" stroke="#000000" points="176.4428,-1065.7431 166.7605,-1070.0446 177.012,-1072.7199 176.4428,-1065.7431"/>
</g>
<!-- \\EC\\EuropaWS\\Messages\\IdentifiableMessageInterface -->
<g id="node12" class="node">
<title>\\EC\\EuropaWS\\Messages\\IdentifiableMessageInterface</title>
<polygon fill="none" stroke="#000000" points="894.7463,-1039 694.086,-1039 694.086,-1003 894.7463,-1003 894.7463,-1039"/>
<text text-anchor="middle" x="794.4162" y="-1017.7" font-family="Courier,monospace" font-size="11.00" fill="#000000">IdentifiableMessageInterface</text>
</g>
<!-- \\EC\\EuropaWS\\Messages\\ValidatableMessageInterface -->
<g id="node15" class="node">
<title>\\EC\\EuropaWS\\Messages\\ValidatableMessageInterface</title>
<polygon fill="none" stroke="#000000" points="534.2404,-1120 339.7822,-1120 339.7822,-1084 534.2404,-1084 534.2404,-1120"/>
<text text-anchor="middle" x="437.0113" y="-1098.7" font-family="Courier,monospace" font-size="11.00" fill="#000000">ValidatableMessageInterface</text>
</g>
<!-- \\EC\\EuropaWS\\Messages\\IdentifiableMessageInterface&#45;&gt;\\EC\\EuropaWS\\Messages\\ValidatableMessageInterface -->
<g id="edge13" class="edge">
<title>\\EC\\EuropaWS\\Messages\\IdentifiableMessageInterface&#45;&gt;\\EC\\EuropaWS\\Messages\\ValidatableMessageInterface</title>
<path fill="none" stroke="#000000" d="M705.2285,-1039.0774C698.6749,-1040.9135 692.2059,-1042.8879 686.0011,-1045 656.2625,-1055.1231 652.0891,-1065.9678 622.0011,-1075 597.3022,-1082.4144 570.1154,-1087.8273 544.364,-1091.7669"/>
<polygon fill="none" stroke="#000000" points="543.58,-1088.3443 534.1941,-1093.2591 544.5963,-1095.2702 543.58,-1088.3443"/>
</g>
<!-- \\EC\\EuropaWS\\Messages\\RequestInterface -->
<g id="node14" class="node">
<title>\\EC\\EuropaWS\\Messages\\RequestInterface</title>
<polygon fill="none" stroke="#000000" points="855.034,-985 733.7984,-985 733.7984,-949 855.034,-949 855.034,-985"/>
<text text-anchor="middle" x="794.4162" y="-963.7" font-family="Courier,monospace" font-size="11.00" fill="#000000">RequestInterface</text>
</g>
<!-- \\EC\\EuropaWS\\Messages\\ValidatableMessageInterface&#45;&gt;\\EC\\EuropaWS\\Messages\\MessageInterface -->
<g id="edge14" class="edge">
<title>\\EC\\EuropaWS\\Messages\\ValidatableMessageInterface&#45;&gt;\\EC\\EuropaWS\\Messages\\MessageInterface</title>
<path fill="none" stroke="#000000" d="M339.4905,-1094.0451C287.4357,-1089.799 224.5212,-1084.667 177.1228,-1080.8007"/>
<polygon fill="none" stroke="#000000" points="177.2018,-1077.2956 166.9503,-1079.9709 176.6326,-1084.2724 177.2018,-1077.2956"/>
</g>
<!-- \\EC\\EuropaWS\\Messages\\ValidatableMessageInterface&#45;&gt;\\EC\\EuropaWS\\ConvertibleInterface -->
<g id="edge16" class="edge">
<title>\\EC\\EuropaWS\\Messages\\ValidatableMessageInterface&#45;&gt;\\EC\\EuropaWS\\ConvertibleInterface</title>
<path fill="none" stroke="#000000" d="M339.7373,-1109.1325C311.219,-1112.413 280.1483,-1117.1595 252.0215,-1124 218.8134,-1132.0763 212.4209,-1140.1244 180.0215,-1151 179.1597,-1151.2893 178.2917,-1151.5786 177.4183,-1151.8679"/>
<polygon fill="none" stroke="#000000" points="176.3322,-1148.5406 167.8991,-1154.9542 178.4911,-1155.1994 176.3322,-1148.5406"/>
</g>
<!-- \\EC\\EuropaWS\\Messages\\ValidatableMessageInterface&#45;&gt;\\EC\\EuropaWS\\ValidatableInterface -->
<g id="edge15" class="edge">
<title>\\EC\\EuropaWS\\Messages\\ValidatableMessageInterface&#45;&gt;\\EC\\EuropaWS\\ValidatableInterface</title>
<path fill="none" stroke="#000000" d="M339.7395,-1101.0294C310.3233,-1103.9782 278.7566,-1110.574 252.0215,-1124 210.4412,-1144.881 218.9127,-1174.4577 180.0215,-1200 177.7422,-1201.497 175.369,-1202.9245 172.9304,-1204.2844"/>
<polygon fill="none" stroke="#000000" points="171.178,-1201.2493 163.865,-1208.9155 174.3625,-1207.483 171.178,-1201.2493"/>
</g>
<!-- \\EC\\EuropaWS\\Proxies\\BasicProxyController -->
<g id="node16" class="node">
<title>\\EC\\EuropaWS\\Proxies\\BasicProxyController</title>
<polygon fill="none" stroke="#000000" points="868.4376,-906 720.3947,-906 720.3947,-870 868.4376,-870 868.4376,-906"/>
<text text-anchor="middle" x="794.4162" y="-884.7" font-family="Courier,monospace" font-size="11.00" fill="#000000">BasicProxyController</text>
</g>
<!-- \\EC\\EuropaWS\\Proxies\\ProxyControllerInterface -->
<g id="node19" class="node">
<title>\\EC\\EuropaWS\\Proxies\\ProxyControllerInterface</title>
<polygon fill="none" stroke="#000000" points="524.4376,-906 349.585,-906 349.585,-870 524.4376,-870 524.4376,-906"/>
<text text-anchor="middle" x="437.0113" y="-884.7" font-family="Courier,monospace" font-size="11.00" fill="#000000">ProxyControllerInterface</text>
</g>
<!-- \\EC\\EuropaWS\\Proxies\\BasicProxyController&#45;&gt;\\EC\\EuropaWS\\Proxies\\ProxyControllerInterface -->
<g id="edge9" class="edge">
<title>\\EC\\EuropaWS\\Proxies\\BasicProxyController&#45;&gt;\\EC\\EuropaWS\\Proxies\\ProxyControllerInterface</title>
<path fill="none" stroke="#000000" stroke-dasharray="1,5" d="M720.3616,-888C666.5322,-888 593.143,-888 534.5417,-888"/>
<polygon fill="none" stroke="#000000" points="534.5264,-884.5001 524.5264,-888 534.5263,-891.5001 534.5264,-884.5001"/>
</g>
<!-- \\EC\\EuropaWS\\Proxies\\ComponentConverterInterface -->
<g id="node17" class="node">
<title>\\EC\\EuropaWS\\Proxies\\ComponentConverterInterface</title>
<polygon fill="none" stroke="#000000" points="891.6453,-852 697.187,-852 697.187,-816 891.6453,-816 891.6453,-852"/>
<text text-anchor="middle" x="794.4162" y="-830.7" font-family="Courier,monospace" font-size="11.00" fill="#000000">ComponentConverterInterface</text>
</g>
<!-- \\EC\\EuropaWS\\Proxies\\MessageConverterInterface -->
<g id="node18" class="node">
<title>\\EC\\EuropaWS\\Proxies\\MessageConverterInterface</title>
<polygon fill="none" stroke="#000000" points="884.943,-798 703.8893,-798 703.8893,-762 884.943,-762 884.943,-798"/>
<text text-anchor="middle" x="794.4162" y="-776.7" font-family="Courier,monospace" font-size="11.00" fill="#000000">MessageConverterInterface</text>
</g>
<!-- \\EC\\EuropaWS\\Transporters\\DummyTransporter -->
<g id="node20" class="node">
<title>\\EC\\EuropaWS\\Transporters\\DummyTransporter</title>
<polygon fill="none" stroke="#000000" points="855.034,-719 733.7984,-719 733.7984,-683 855.034,-683 855.034,-719"/>
<text text-anchor="middle" x="794.4162" y="-697.7" font-family="Courier,monospace" font-size="11.00" fill="#000000">DummyTransporter</text>
</g>
<!-- \\EC\\EuropaWS\\Transporters\\TransporterInterface -->
<g id="node21" class="node">
<title>\\EC\\EuropaWS\\Transporters\\TransporterInterface</title>
<polygon fill="none" stroke="#000000" points="511.0328,-719 362.9898,-719 362.9898,-683 511.0328,-683 511.0328,-719"/>
<text text-anchor="middle" x="437.0113" y="-697.7" font-family="Courier,monospace" font-size="11.00" fill="#000000">TransporterInterface</text>
</g>
<!-- \\EC\\EuropaWS\\Transporters\\DummyTransporter&#45;&gt;\\EC\\EuropaWS\\Transporters\\TransporterInterface -->
<g id="edge10" class="edge">
<title>\\EC\\EuropaWS\\Transporters\\DummyTransporter&#45;&gt;\\EC\\EuropaWS\\Transporters\\TransporterInterface</title>
<path fill="none" stroke="#000000" stroke-dasharray="1,5" d="M733.7873,-701C675.4669,-701 586.7777,-701 521.5357,-701"/>
<polygon fill="none" stroke="#000000" points="521.2744,-697.5001 511.2743,-701 521.2743,-704.5001 521.2744,-697.5001"/>
</g>
<!-- \\EC\\EuropaWS\\ClientContainerFactory -->
<g id="node22" class="node">
<title>\\EC\\EuropaWS\\ClientContainerFactory</title>
<polygon fill="none" stroke="#000000" points="875.14,-158 713.6924,-158 713.6924,-122 875.14,-122 875.14,-158"/>
<text text-anchor="middle" x="794.4162" y="-136.7" font-family="Courier,monospace" font-size="11.00" fill="#000000">ClientContainerFactory</text>
</g>
</g>
</svg>
