<?xml version="1.0" encoding="UTF-8" standalone="no"?>
<!DOCTYPE svg PUBLIC "-//W3C//DTD SVG 1.1//EN"
 "http://www.w3.org/Graphics/SVG/1.1/DTD/svg11.dtd">
<!-- Generated by graphviz version 2.40.1 (20161225.0304)
 -->
<!-- Title: G Pages: 1 -->
<svg width="943pt" height="1263pt"
 viewBox="0.00 0.00 942.83 1263.00" xmlns="http://www.w3.org/2000/svg" xmlns:xlink="http://www.w3.org/1999/xlink">
<g id="graph0" class="graph" transform="scale(1 1) rotate(0) translate(4 1259)">
<title>G</title>
<polygon fill="#ffffff" stroke="transparent" points="-4,4 -4,-1259 938.8312,-1259 938.8312,4 -4,4"/>
<g id="clust1" class="cluster">
<title>cluster_Global</title>
<path fill="none" stroke="#c0c0c0" d="M20,-98C20,-98 914.8312,-98 914.8312,-98 920.8312,-98 926.8312,-104 926.8312,-110 926.8312,-110 926.8312,-1235 926.8312,-1235 926.8312,-1241 920.8312,-1247 914.8312,-1247 914.8312,-1247 20,-1247 20,-1247 14,-1247 8,-1241 8,-1235 8,-1235 8,-110 8,-110 8,-104 14,-98 20,-98"/>
<text text-anchor="middle" x="467.4156" y="-1234.2" font-family="Times,serif" font-size="11.00" fill="#c0c0c0">Global</text>
</g>
<g id="clust2" class="cluster">
<title>cluster_\EC</title>
<path fill="none" stroke="#c0c0c0" d="M28,-106C28,-106 906.8312,-106 906.8312,-106 912.8312,-106 918.8312,-112 918.8312,-118 918.8312,-118 918.8312,-1208 918.8312,-1208 918.8312,-1214 912.8312,-1220 906.8312,-1220 906.8312,-1220 28,-1220 28,-1220 22,-1220 16,-1214 16,-1208 16,-1208 16,-118 16,-118 16,-112 22,-106 28,-106"/>
<text text-anchor="middle" x="467.4156" y="-1207.2" font-family="Times,serif" font-size="11.00" fill="#c0c0c0">EC</text>
</g>
<g id="clust3" class="cluster">
<title>cluster_\EC\EuropaWS</title>
<path fill="none" stroke="#c0c0c0" d="M36,-114C36,-114 898.8312,-114 898.8312,-114 904.8312,-114 910.8312,-120 910.8312,-126 910.8312,-126 910.8312,-1181 910.8312,-1181 910.8312,-1187 904.8312,-1193 898.8312,-1193 898.8312,-1193 36,-1193 36,-1193 30,-1193 24,-1187 24,-1181 24,-1181 24,-126 24,-126 24,-120 30,-114 36,-114"/>
<text text-anchor="middle" x="467.4156" y="-1180.2" font-family="Times,serif" font-size="11.00" fill="#c0c0c0">EuropaWS</text>
</g>
<g id="clust4" class="cluster">
<title>cluster_\EC\EuropaWS\Clients</title>
<path fill="none" stroke="#c0c0c0" d="M383.5032,-1095C383.5032,-1095 841.3231,-1095 841.3231,-1095 847.3231,-1095 853.3231,-1101 853.3231,-1107 853.3231,-1107 853.3231,-1154 853.3231,-1154 853.3231,-1160 847.3231,-1166 841.3231,-1166 841.3231,-1166 383.5032,-1166 383.5032,-1166 377.5032,-1166 371.5032,-1160 371.5032,-1154 371.5032,-1154 371.5032,-1107 371.5032,-1107 371.5032,-1101 377.5032,-1095 383.5032,-1095"/>
<text text-anchor="middle" x="612.4132" y="-1153.2" font-family="Times,serif" font-size="11.00" fill="#c0c0c0">Clients</text>
</g>
<g id="clust5" class="cluster">
<title>cluster_\EC\EuropaWS\Common</title>
<path fill="none" stroke="#c0c0c0" d="M711.2033,-463C711.2033,-463 877.6291,-463 877.6291,-463 883.6291,-463 889.6291,-469 889.6291,-475 889.6291,-475 889.6291,-576 889.6291,-576 889.6291,-582 883.6291,-588 877.6291,-588 877.6291,-588 711.2033,-588 711.2033,-588 705.2033,-588 699.2033,-582 699.2033,-576 699.2033,-576 699.2033,-475 699.2033,-475 699.2033,-469 705.2033,-463 711.2033,-463"/>
<text text-anchor="middle" x="794.4162" y="-575.2" font-family="Times,serif" font-size="11.00" fill="#c0c0c0">Common</text>
</g>
<g id="clust6" class="cluster">
<title>cluster_\EC\EuropaWS\Exceptions</title>
<path fill="none" stroke="#c0c0c0" d="M698.0011,-168C698.0011,-168 890.8312,-168 890.8312,-168 896.8312,-168 902.8312,-174 902.8312,-180 902.8312,-180 902.8312,-443 902.8312,-443 902.8312,-449 896.8312,-455 890.8312,-455 890.8312,-455 698.0011,-455 698.0011,-455 692.0011,-455 686.0011,-449 686.0011,-443 686.0011,-443 686.0011,-180 686.0011,-180 686.0011,-174 692.0011,-168 698.0011,-168"/>
<text text-anchor="middle" x="794.4162" y="-442.2" font-family="Times,serif" font-size="11.00" fill="#c0c0c0">Exceptions</text>
</g>
<g id="clust7" class="cluster">
<title>cluster_\EC\EuropaWS\Messages</title>
<path fill="none" stroke="#c0c0c0" d="M49.2021,-862C49.2021,-862 890.8312,-862 890.8312,-862 896.8312,-862 902.8312,-868 902.8312,-874 902.8312,-874 902.8312,-1056 902.8312,-1056 902.8312,-1062 896.8312,-1068 890.8312,-1068 890.8312,-1068 49.2021,-1068 49.2021,-1068 43.2021,-1068 37.2021,-1062 37.2021,-1056 37.2021,-1056 37.2021,-874 37.2021,-874 37.2021,-868 43.2021,-862 49.2021,-862"/>
<text text-anchor="middle" x="470.0167" y="-1055.2" font-family="Times,serif" font-size="11.00" fill="#c0c0c0">Messages</text>
</g>
<g id="clust8" class="cluster">
<title>cluster_\EC\EuropaWS\Messages\Components</title>
<path fill="none" stroke="#c0c0c0" d="M731.0065,-970C731.0065,-970 857.8258,-970 857.8258,-970 863.8258,-970 869.8258,-976 869.8258,-982 869.8258,-982 869.8258,-1029 869.8258,-1029 869.8258,-1035 863.8258,-1041 857.8258,-1041 857.8258,-1041 731.0065,-1041 731.0065,-1041 725.0065,-1041 719.0065,-1035 719.0065,-1029 719.0065,-1029 719.0065,-982 719.0065,-982 719.0065,-976 725.0065,-970 731.0065,-970"/>
<text text-anchor="middle" x="794.4162" y="-1028.2" font-family="Times,serif" font-size="11.00" fill="#c0c0c0">Components</text>
</g>
<g id="clust9" class="cluster">
<title>cluster_\EC\EuropaWS\Proxies</title>
<path fill="none" stroke="#c0c0c0" d="M353.7984,-675C353.7984,-675 887.5307,-675 887.5307,-675 893.5307,-675 899.5307,-681 899.5307,-687 899.5307,-687 899.5307,-842 899.5307,-842 899.5307,-848 893.5307,-854 887.5307,-854 887.5307,-854 353.7984,-854 353.7984,-854 347.7984,-854 341.7984,-848 341.7984,-842 341.7984,-842 341.7984,-687 341.7984,-687 341.7984,-681 347.7984,-675 353.7984,-675"/>
<text text-anchor="middle" x="620.6645" y="-841.2" font-family="Times,serif" font-size="11.00" fill="#c0c0c0">Proxies</text>
</g>
<g id="clust10" class="cluster">
<title>cluster_\EC\EuropaWS\Transporters</title>
<path fill="none" stroke="#c0c0c0" d="M367.0006,-596C367.0006,-596 851.2248,-596 851.2248,-596 857.2248,-596 863.2248,-602 863.2248,-608 863.2248,-608 863.2248,-655 863.2248,-655 863.2248,-661 857.2248,-667 851.2248,-667 851.2248,-667 367.0006,-667 367.0006,-667 361.0006,-667 355.0006,-661 355.0006,-655 355.0006,-655 355.0006,-608 355.0006,-608 355.0006,-602 361.0006,-596 367.0006,-596"/>
<text text-anchor="middle" x="609.1127" y="-654.2" font-family="Times,serif" font-size="11.00" fill="#c0c0c0">Transporters</text>
</g>
<!-- \\EC\\EuropaWS\\Clients\\DefaultClient -->
<g id="node1" class="node">
<title>\\EC\\EuropaWS\\Clients\\DefaultClient</title>
<polygon fill="none" stroke="#000000" points="845.2303,-1139 743.602,-1139 743.602,-1103 845.2303,-1103 845.2303,-1139"/>
<text text-anchor="middle" x="794.4162" y="-1117.7" font-family="Courier,monospace" font-size="11.00" fill="#000000">DefaultClient</text>
</g>
<!-- \\EC\\EuropaWS\\Clients\\ClientInterface -->
<g id="node2" class="node">
<title>\\EC\\EuropaWS\\Clients\\ClientInterface</title>
<polygon fill="none" stroke="#000000" points="494.5274,-1139 379.4952,-1139 379.4952,-1103 494.5274,-1103 494.5274,-1139"/>
<text text-anchor="middle" x="437.0113" y="-1117.7" font-family="Courier,monospace" font-size="11.00" fill="#000000">ClientInterface</text>
</g>
<!-- \\EC\\EuropaWS\\Clients\\DefaultClient&#45;&gt;\\EC\\EuropaWS\\Clients\\ClientInterface -->
<g id="edge1" class="edge">
<title>\\EC\\EuropaWS\\Clients\\DefaultClient&#45;&gt;\\EC\\EuropaWS\\Clients\\ClientInterface</title>
<path fill="none" stroke="#000000" stroke-dasharray="1,5" d="M743.5883,-1121C681.0794,-1121 574.7343,-1121 505.1789,-1121"/>
<polygon fill="none" stroke="#000000" points="504.7689,-1117.5001 494.7689,-1121 504.7689,-1124.5001 504.7689,-1117.5001"/>
</g>
<!-- \\EC\\EuropaWS\\Common\\DefaultValidatorBuilder -->
<g id="node3" class="node">
<title>\\EC\\EuropaWS\\Common\\DefaultValidatorBuilder</title>
<polygon fill="none" stroke="#000000" points="878.241,-561 710.5914,-561 710.5914,-525 878.241,-525 878.241,-561"/>
<text text-anchor="middle" x="794.4162" y="-539.7" font-family="Courier,monospace" font-size="11.00" fill="#000000">DefaultValidatorBuilder</text>
</g>
<!-- \\Symfony\\Component\\Validator\\ValidatorBuilder -->
<g id="node25" class="node">
<title>\\Symfony\\Component\\Validator\\ValidatorBuilder</title>
<ellipse fill="none" stroke="#000000" cx="437.0113" cy="-72" rx="184.9796" ry="18"/>
<text text-anchor="middle" x="437.0113" y="-67.8" font-family="Times,serif" font-size="14.00" fill="#c0c0c0">\Symfony\Component\Validator\ValidatorBuilder</text>
</g>
<!-- \\EC\\EuropaWS\\Common\\DefaultValidatorBuilder&#45;&gt;\\Symfony\\Component\\Validator\\ValidatorBuilder -->
<g id="edge2" class="edge">
<title>\\EC\\EuropaWS\\Common\\DefaultValidatorBuilder&#45;&gt;\\Symfony\\Component\\Validator\\ValidatorBuilder</title>
<path fill="none" stroke="#000000" d="M710.3886,-529.5674C701.664,-526.0348 693.3253,-521.5898 686.0011,-516 539.0922,-403.8797 466.0525,-178.6785 444.2251,-99.9446"/>
<polygon fill="none" stroke="#000000" points="447.5906,-98.9825 441.5927,-90.2489 440.8352,-100.8166 447.5906,-98.9825"/>
</g>
<!-- \\EC\\EuropaWS\\Common\\WSConfigurationInterface -->
<g id="node4" class="node">
<title>\\EC\\EuropaWS\\Common\\WSConfigurationInterface</title>
<polygon fill="none" stroke="#000000" points="881.8425,-507 706.9899,-507 706.9899,-471 881.8425,-471 881.8425,-507"/>
<text text-anchor="middle" x="794.4162" y="-485.7" font-family="Courier,monospace" font-size="11.00" fill="#000000">WSConfigurationInterface</text>
</g>
<!-- \\EC\\EuropaWS\\Exceptions\\ClientInstantiationException -->
<g id="node5" class="node">
<title>\\EC\\EuropaWS\\Exceptions\\ClientInstantiationException</title>
<polygon fill="none" stroke="#000000" points="894.7463,-320 694.086,-320 694.086,-284 894.7463,-284 894.7463,-320"/>
<text text-anchor="middle" x="794.4162" y="-298.7" font-family="Courier,monospace" font-size="11.00" fill="#000000">ClientInstantiationException</text>
</g>
<!-- \\Exception -->
<g id="node26" class="node">
<title>\\Exception</title>
<ellipse fill="none" stroke="#000000" cx="437.0113" cy="-18" rx="48.3341" ry="18"/>
<text text-anchor="middle" x="437.0113" y="-13.8" font-family="Times,serif" font-size="14.00" fill="#c0c0c0">\Exception</text>
</g>
<!-- \\EC\\EuropaWS\\Exceptions\\ClientInstantiationException&#45;&gt;\\Exception -->
<g id="edge3" class="edge">
<title>\\EC\\EuropaWS\\Exceptions\\ClientInstantiationException&#45;&gt;\\Exception</title>
<path fill="none" stroke="#000000" d="M697.3903,-283.9828C693.3071,-281.3605 689.4766,-278.3818 686.0011,-275 609.9551,-201.0035 701.6205,-115.1372 622.0011,-45 587.0884,-14.2451 533.2696,-9.4675 492.6657,-11.2179"/>
<polygon fill="none" stroke="#000000" points="492.4304,-7.7255 482.6469,-11.7917 492.8307,-14.7141 492.4304,-7.7255"/>
</g>
<!-- \\EC\\EuropaWS\\Exceptions\\ConnectionException -->
<g id="node6" class="node">
<title>\\EC\\EuropaWS\\Exceptions\\ConnectionException</title>
<polygon fill="none" stroke="#000000" points="865.3372,-266 723.4951,-266 723.4951,-230 865.3372,-230 865.3372,-266"/>
<text text-anchor="middle" x="794.4162" y="-244.7" font-family="Courier,monospace" font-size="11.00" fill="#000000">ConnectionException</text>
</g>
<!-- \\EC\\EuropaWS\\Exceptions\\ConnectionException&#45;&gt;\\Exception -->
<g id="edge4" class="edge">
<title>\\EC\\EuropaWS\\Exceptions\\ConnectionException&#45;&gt;\\Exception</title>
<path fill="none" stroke="#000000" d="M723.5517,-240.8594C709.8609,-236.7416 696.5238,-230.4749 686.0011,-221 624.1474,-165.3052 686.5387,-97.5614 622.0011,-45 586.3487,-15.9636 533.5042,-10.7956 493.4138,-11.9711"/>
<polygon fill="none" stroke="#000000" points="493.0933,-8.4816 483.254,-12.4107 493.3959,-15.475 493.0933,-8.4816"/>
</g>
<!-- \\EC\\EuropaWS\\Exceptions\\ProxyException -->
<g id="node7" class="node">
<title>\\EC\\EuropaWS\\Exceptions\\ProxyException</title>
<polygon fill="none" stroke="#000000" points="848.832,-212 740.0003,-212 740.0003,-176 848.832,-176 848.832,-212"/>
<text text-anchor="middle" x="794.4162" y="-190.7" font-family="Courier,monospace" font-size="11.00" fill="#000000">ProxyException</text>
</g>
<!-- \\EC\\EuropaWS\\Exceptions\\ProxyException&#45;&gt;\\Exception -->
<g id="edge5" class="edge">
<title>\\EC\\EuropaWS\\Exceptions\\ProxyException&#45;&gt;\\Exception</title>
<path fill="none" stroke="#000000" d="M739.9891,-192.475C721.3469,-189.6206 701.3423,-183.7134 686.0011,-172 635.7641,-133.6425 673.279,-81.9546 622.0011,-45 585.2609,-18.5222 533.6153,-12.8866 494.227,-13.2392"/>
<polygon fill="none" stroke="#000000" points="493.9005,-9.7454 483.9806,-13.4665 494.0558,-16.7437 493.9005,-9.7454"/>
</g>
<!-- \\EC\\EuropaWS\\Exceptions\\ValidationException -->
<g id="node8" class="node">
<title>\\EC\\EuropaWS\\Exceptions\\ValidationException</title>
<polygon fill="none" stroke="#000000" points="865.3372,-428 723.4951,-428 723.4951,-392 865.3372,-392 865.3372,-428"/>
<text text-anchor="middle" x="794.4162" y="-406.7" font-family="Courier,monospace" font-size="11.00" fill="#000000">ValidationException</text>
</g>
<!-- \\EC\\EuropaWS\\Exceptions\\ValidationException&#45;&gt;\\Exception -->
<g id="edge6" class="edge">
<title>\\EC\\EuropaWS\\Exceptions\\ValidationException&#45;&gt;\\Exception</title>
<path fill="none" stroke="#000000" d="M723.4463,-404.4542C709.4326,-400.2718 695.9909,-393.5755 686.0011,-383 581.0121,-271.8555 732.3688,-150.8054 622.0011,-45 588.0907,-12.4914 533.3936,-8.1111 492.2533,-10.4446"/>
<polygon fill="none" stroke="#000000" points="491.832,-6.9657 482.1069,-11.1694 492.3309,-13.9479 491.832,-6.9657"/>
</g>
<!-- \\EC\\EuropaWS\\Exceptions\\WebServiceErrorException -->
<g id="node9" class="node">
<title>\\EC\\EuropaWS\\Exceptions\\WebServiceErrorException</title>
<polygon fill="none" stroke="#000000" points="881.8425,-374 706.9899,-374 706.9899,-338 881.8425,-338 881.8425,-374"/>
<text text-anchor="middle" x="794.4162" y="-352.7" font-family="Courier,monospace" font-size="11.00" fill="#000000">WebServiceErrorException</text>
</g>
<!-- \\EC\\EuropaWS\\Exceptions\\WebServiceErrorException&#45;&gt;\\Exception -->
<g id="edge7" class="edge">
<title>\\EC\\EuropaWS\\Exceptions\\WebServiceErrorException&#45;&gt;\\Exception</title>
<path fill="none" stroke="#000000" d="M707.047,-343.8013C699.2484,-340.0134 692.0358,-335.1716 686.0011,-329 595.542,-236.489 716.9333,-132.9148 622.0011,-45 587.6445,-13.183 533.2581,-8.6527 492.3301,-10.7586"/>
<polygon fill="none" stroke="#000000" points="491.983,-7.2738 482.235,-11.4244 492.4437,-14.2586 491.983,-7.2738"/>
</g>
<!-- \\EC\\EuropaWS\\Messages\\Components\\ComponentInterface -->
<g id="node10" class="node">
<title>\\EC\\EuropaWS\\Messages\\Components\\ComponentInterface</title>
<polygon fill="none" stroke="#000000" points="861.7356,-1014 727.0967,-1014 727.0967,-978 861.7356,-978 861.7356,-1014"/>
<text text-anchor="middle" x="794.4162" y="-992.7" font-family="Courier,monospace" font-size="11.00" fill="#000000">ComponentInterface</text>
</g>
<!-- \\EC\\EuropaWS\\ConvertibleInterface -->
<g id="node23" class="node">
<title>\\EC\\EuropaWS\\ConvertibleInterface</title>
<polygon fill="none" stroke="#000000" points="180.0322,-1112 31.9893,-1112 31.9893,-1076 180.0322,-1076 180.0322,-1112"/>
<text text-anchor="middle" x="106.0107" y="-1090.7" font-family="Courier,monospace" font-size="11.00" fill="#000000">ConvertibleInterface</text>
</g>
<!-- \\EC\\EuropaWS\\Messages\\Components\\ComponentInterface&#45;&gt;\\EC\\EuropaWS\\ConvertibleInterface -->
<g id="edge12" class="edge">
<title>\\EC\\EuropaWS\\Messages\\Components\\ComponentInterface&#45;&gt;\\EC\\EuropaWS\\ConvertibleInterface</title>
<path fill="none" stroke="#000000" d="M762.5698,-1014.1208C728.8471,-1032.3158 673.4763,-1059.4045 622.0011,-1072 541.9716,-1091.5825 518.1237,-1069.5441 437.0113,-1084"/>
<path fill="none" stroke="#000000" d="M437.0113,-1084C425.0483,-1086.132 284.4847,-1089.8103 190.4217,-1092.0621"/>
<polygon fill="none" stroke="#000000" points="190.247,-1088.5651 180.3332,-1092.3024 190.4137,-1095.5631 190.247,-1088.5651"/>
</g>
<!-- \\EC\\EuropaWS\\ValidatableInterface -->
<g id="node24" class="node">
<title>\\EC\\EuropaWS\\ValidatableInterface</title>
<polygon fill="none" stroke="#000000" points="180.0322,-1166 31.9893,-1166 31.9893,-1130 180.0322,-1130 180.0322,-1166"/>
<text text-anchor="middle" x="106.0107" y="-1144.7" font-family="Courier,monospace" font-size="11.00" fill="#000000">ValidatableInterface</text>
</g>
<!-- \\EC\\EuropaWS\\Messages\\Components\\ComponentInterface&#45;&gt;\\EC\\EuropaWS\\ValidatableInterface -->
<g id="edge11" class="edge">
<title>\\EC\\EuropaWS\\Messages\\Components\\ComponentInterface&#45;&gt;\\EC\\EuropaWS\\ValidatableInterface</title>
<path fill="none" stroke="#000000" d="M437.0113,-1084C356.0111,-1098.4359 332.3807,-1073.3415 252.0215,-1091 218.1627,-1098.4403 212.3132,-1108.3897 180.0215,-1121 175.5584,-1122.7429 170.9308,-1124.5144 166.2675,-1126.274"/>
<polygon fill="none" stroke="#000000" points="164.8272,-1123.0758 156.6861,-1129.8562 167.2786,-1129.6325 164.8272,-1123.0758"/>
</g>
<!-- \\EC\\EuropaWS\\Messages\\StringResponseMessage -->
<g id="node11" class="node">
<title>\\EC\\EuropaWS\\Messages\\StringResponseMessage</title>
<polygon fill="none" stroke="#000000" points="514.1343,-987 359.8883,-987 359.8883,-951 514.1343,-951 514.1343,-987"/>
<text text-anchor="middle" x="437.0113" y="-965.7" font-family="Courier,monospace" font-size="11.00" fill="#000000">StringResponseMessage</text>
</g>
<!-- \\EC\\EuropaWS\\Messages\\MessageInterface -->
<g id="node13" class="node">
<title>\\EC\\EuropaWS\\Messages\\MessageInterface</title>
<polygon fill="none" stroke="#000000" points="166.6285,-1014 45.393,-1014 45.393,-978 166.6285,-978 166.6285,-1014"/>
<text text-anchor="middle" x="106.0107" y="-992.7" font-family="Courier,monospace" font-size="11.00" fill="#000000">MessageInterface</text>
</g>
<!-- \\EC\\EuropaWS\\Messages\\StringResponseMessage&#45;&gt;\\EC\\EuropaWS\\Messages\\MessageInterface -->
<g id="edge8" class="edge">
<title>\\EC\\EuropaWS\\Messages\\StringResponseMessage&#45;&gt;\\EC\\EuropaWS\\Messages\\MessageInterface</title>
<path fill="none" stroke="#000000" stroke-dasharray="1,5" d="M359.8241,-975.2962C304.5489,-979.8051 230.6865,-985.8301 176.8995,-990.2175"/>
<polygon fill="none" stroke="#000000" points="176.4428,-986.7431 166.7605,-991.0446 177.012,-993.7199 176.4428,-986.7431"/>
</g>
<!-- \\EC\\EuropaWS\\Messages\\IdentifiableMessageInterface -->
<g id="node12" class="node">
<title>\\EC\\EuropaWS\\Messages\\IdentifiableMessageInterface</title>
<polygon fill="none" stroke="#000000" points="894.7463,-960 694.086,-960 694.086,-924 894.7463,-924 894.7463,-960"/>
<text text-anchor="middle" x="794.4162" y="-938.7" font-family="Courier,monospace" font-size="11.00" fill="#000000">IdentifiableMessageInterface</text>
</g>
<!-- \\EC\\EuropaWS\\Messages\\ValidatableMessageInterface -->
<g id="node15" class="node">
<title>\\EC\\EuropaWS\\Messages\\ValidatableMessageInterface</title>
<polygon fill="none" stroke="#000000" points="534.2404,-1041 339.7822,-1041 339.7822,-1005 534.2404,-1005 534.2404,-1041"/>
<text text-anchor="middle" x="437.0113" y="-1019.7" font-family="Courier,monospace" font-size="11.00" fill="#000000">ValidatableMessageInterface</text>
</g>
<!-- \\EC\\EuropaWS\\Messages\\IdentifiableMessageInterface&#45;&gt;\\EC\\EuropaWS\\Messages\\ValidatableMessageInterface -->
<g id="edge13" class="edge">
<title>\\EC\\EuropaWS\\Messages\\IdentifiableMessageInterface&#45;&gt;\\EC\\EuropaWS\\Messages\\ValidatableMessageInterface</title>
<path fill="none" stroke="#000000" d="M705.2285,-960.0774C698.6749,-961.9135 692.2059,-963.8879 686.0011,-966 656.2625,-976.1231 652.0891,-986.9678 622.0011,-996 597.3022,-1003.4144 570.1154,-1008.8273 544.364,-1012.7669"/>
<polygon fill="none" stroke="#000000" points="543.58,-1009.3443 534.1941,-1014.2591 544.5963,-1016.2702 543.58,-1009.3443"/>
</g>
<!-- \\EC\\EuropaWS\\Messages\\RequestInterface -->
<g id="node14" class="node">
<title>\\EC\\EuropaWS\\Messages\\RequestInterface</title>
<polygon fill="none" stroke="#000000" points="855.034,-906 733.7984,-906 733.7984,-870 855.034,-870 855.034,-906"/>
<text text-anchor="middle" x="794.4162" y="-884.7" font-family="Courier,monospace" font-size="11.00" fill="#000000">RequestInterface</text>
</g>
<!-- \\EC\\EuropaWS\\Messages\\ValidatableMessageInterface&#45;&gt;\\EC\\EuropaWS\\Messages\\MessageInterface -->
<g id="edge14" class="edge">
<title>\\EC\\EuropaWS\\Messages\\ValidatableMessageInterface&#45;&gt;\\EC\\EuropaWS\\Messages\\MessageInterface</title>
<path fill="none" stroke="#000000" d="M339.4905,-1015.0451C287.4357,-1010.799 224.5212,-1005.667 177.1228,-1001.8007"/>
<polygon fill="none" stroke="#000000" points="177.2018,-998.2956 166.9503,-1000.9709 176.6326,-1005.2724 177.2018,-998.2956"/>
</g>
<!-- \\EC\\EuropaWS\\Messages\\ValidatableMessageInterface&#45;&gt;\\EC\\EuropaWS\\ConvertibleInterface -->
<g id="edge16" class="edge">
<title>\\EC\\EuropaWS\\Messages\\ValidatableMessageInterface&#45;&gt;\\EC\\EuropaWS\\ConvertibleInterface</title>
<path fill="none" stroke="#000000" d="M339.7373,-1030.1325C311.219,-1033.413 280.1483,-1038.1595 252.0215,-1045 218.8134,-1053.0763 212.4209,-1061.1244 180.0215,-1072 179.1597,-1072.2893 178.2917,-1072.5786 177.4183,-1072.8679"/>
<polygon fill="none" stroke="#000000" points="176.3322,-1069.5406 167.8991,-1075.9542 178.4911,-1076.1994 176.3322,-1069.5406"/>
</g>
<!-- \\EC\\EuropaWS\\Messages\\ValidatableMessageInterface&#45;&gt;\\EC\\EuropaWS\\ValidatableInterface -->
<g id="edge15" class="edge">
<title>\\EC\\EuropaWS\\Messages\\ValidatableMessageInterface&#45;&gt;\\EC\\EuropaWS\\ValidatableInterface</title>
<path fill="none" stroke="#000000" d="M339.7395,-1022.0294C310.3233,-1024.9782 278.7566,-1031.574 252.0215,-1045 210.4412,-1065.881 218.9127,-1095.4577 180.0215,-1121 177.7422,-1122.497 175.369,-1123.9245 172.9304,-1125.2844"/>
<polygon fill="none" stroke="#000000" points="171.178,-1122.2493 163.865,-1129.9155 174.3625,-1128.483 171.178,-1122.2493"/>
</g>
<!-- \\EC\\EuropaWS\\Proxies\\BasicProxyController -->
<g id="node16" class="node">
<title>\\EC\\EuropaWS\\Proxies\\BasicProxyController</title>
<polygon fill="none" stroke="#000000" points="868.4376,-827 720.3947,-827 720.3947,-791 868.4376,-791 868.4376,-827"/>
<text text-anchor="middle" x="794.4162" y="-805.7" font-family="Courier,monospace" font-size="11.00" fill="#000000">BasicProxyController</text>
</g>
<!-- \\EC\\EuropaWS\\Proxies\\ProxyControllerInterface -->
<g id="node19" class="node">
<title>\\EC\\EuropaWS\\Proxies\\ProxyControllerInterface</title>
<polygon fill="none" stroke="#000000" points="524.4376,-827 349.585,-827 349.585,-791 524.4376,-791 524.4376,-827"/>
<text text-anchor="middle" x="437.0113" y="-805.7" font-family="Courier,monospace" font-size="11.00" fill="#000000">ProxyControllerInterface</text>
</g>
<!-- \\EC\\EuropaWS\\Proxies\\BasicProxyController&#45;&gt;\\EC\\EuropaWS\\Proxies\\ProxyControllerInterface -->
<g id="edge9" class="edge">
<title>\\EC\\EuropaWS\\Proxies\\BasicProxyController&#45;&gt;\\EC\\EuropaWS\\Proxies\\ProxyControllerInterface</title>
<path fill="none" stroke="#000000" stroke-dasharray="1,5" d="M720.3616,-809C666.5322,-809 593.143,-809 534.5417,-809"/>
<polygon fill="none" stroke="#000000" points="534.5264,-805.5001 524.5264,-809 534.5263,-812.5001 534.5264,-805.5001"/>
</g>
<!-- \\EC\\EuropaWS\\Proxies\\ComponentConverterInterface -->
<g id="node17" class="node">
<title>\\EC\\EuropaWS\\Proxies\\ComponentConverterInterface</title>
<polygon fill="none" stroke="#000000" points="891.6453,-773 697.187,-773 697.187,-737 891.6453,-737 891.6453,-773"/>
<text text-anchor="middle" x="794.4162" y="-751.7" font-family="Courier,monospace" font-size="11.00" fill="#000000">ComponentConverterInterface</text>
</g>
<!-- \\EC\\EuropaWS\\Proxies\\MessageConverterInterface -->
<g id="node18" class="node">
<title>\\EC\\EuropaWS\\Proxies\\MessageConverterInterface</title>
<polygon fill="none" stroke="#000000" points="884.943,-719 703.8893,-719 703.8893,-683 884.943,-683 884.943,-719"/>
<text text-anchor="middle" x="794.4162" y="-697.7" font-family="Courier,monospace" font-size="11.00" fill="#000000">MessageConverterInterface</text>
</g>
<!-- \\EC\\EuropaWS\\Transporters\\DummyTransporter -->
<g id="node20" class="node">
<title>\\EC\\EuropaWS\\Transporters\\DummyTransporter</title>
<polygon fill="none" stroke="#000000" points="855.034,-640 733.7984,-640 733.7984,-604 855.034,-604 855.034,-640"/>
<text text-anchor="middle" x="794.4162" y="-618.7" font-family="Courier,monospace" font-size="11.00" fill="#000000">DummyTransporter</text>
</g>
<!-- \\EC\\EuropaWS\\Transporters\\TransporterInterface -->
<g id="node21" class="node">
<title>\\EC\\EuropaWS\\Transporters\\TransporterInterface</title>
<polygon fill="none" stroke="#000000" points="511.0328,-640 362.9898,-640 362.9898,-604 511.0328,-604 511.0328,-640"/>
<text text-anchor="middle" x="437.0113" y="-618.7" font-family="Courier,monospace" font-size="11.00" fill="#000000">TransporterInterface</text>
</g>
<!-- \\EC\\EuropaWS\\Transporters\\DummyTransporter&#45;&gt;\\EC\\EuropaWS\\Transporters\\TransporterInterface -->
<g id="edge10" class="edge">
<title>\\EC\\EuropaWS\\Transporters\\DummyTransporter&#45;&gt;\\EC\\EuropaWS\\Transporters\\TransporterInterface</title>
<path fill="none" stroke="#000000" stroke-dasharray="1,5" d="M733.7873,-622C675.4669,-622 586.7777,-622 521.5357,-622"/>
<polygon fill="none" stroke="#000000" points="521.2744,-618.5001 511.2743,-622 521.2743,-625.5001 521.2744,-618.5001"/>
</g>
<!-- \\EC\\EuropaWS\\ClientContainerFactory -->
<g id="node22" class="node">
<title>\\EC\\EuropaWS\\ClientContainerFactory</title>
<polygon fill="none" stroke="#000000" points="875.14,-158 713.6924,-158 713.6924,-122 875.14,-122 875.14,-158"/>
<text text-anchor="middle" x="794.4162" y="-136.7" font-family="Courier,monospace" font-size="11.00" fill="#000000">ClientContainerFactory</text>
</g>
</g>
</svg>
